<?xml version="1.0" encoding="UTF-8"?><svg id="Camada_1" xmlns="http://www.w3.org/2000/svg" viewBox="0 0 265.87 414.64"><path d="M53.08,397.92c-.66-2.53-.64-7.25.53-9.62,1.8-3.65,1.59-5.01,2.78-8.66,3.35-10.28,14.21-15.51,24.55-15.3,3.28.07,6.54,1.25,9.78,1.47l-3.38-40.73c-.4-1.28-12.46-4.39-14.05-7.35-.27-.5-.65-2.11-.66-2.69-.06-2.79,1.43-8.59,2.11-11.54,1.11-4.88,3.91-11.6,4.52-16.15.79-5.97-.91-12.44,1.22-18.35.32-.89,1.03-1.48,1.31-2.38.86-2.76.64-6.77,1.2-9.69-13.59,1.71-28.02-2.54-39.86-9.03-2.57-1.41-7.63-5.5-9.61-6.26-2.18-.84-6.56-.96-9.36-1.71-10.8-2.9-24.82-11.78-22.64-24.8.21-1.23,1.75-3.37,1.68-4.09-.06-.59-1.72-2.66-2.15-3.74-1.4-3.51-1.44-7.45.19-10.9.44-.92,2.41-2.92,2.41-3.5,0-.44-1.71-2.66-2.05-3.87-1.26-4.4-.47-9.19,2.42-12.74,5.49-6.73,17.86-7.01,25.82-6.47-3.59-10.46-1.72-21.12,6.82-28.43,5.06-4.33,13.4-7.09,18.83-1.83,6.95,6.74-.66,16.44-1.28,23.81s4.2,11.06,7.44,17.28c3.03,5.82,4.36,11.76,4.55,18.33,7.49,4.3,16.95,9.03,25.82,8.49,1.87-.12,13.65-2.33,14.21-3.5-9.65-6.39-18.35-14.82-22.41-25.93-3.64-9.94-2.98-19.68.28-29.62-9.84-.68-15.52-9.89-16.23-19.01-.15-1.91.31-4.55-.01-6.26-.15-.76-1.79-2.66-2.23-4.05-1.33-4.23-.74-10.35.13-14.67.5-2.47,3.23-8.92,3.23-10.44,0-1.18-1.11-2.15-1.52-3.3-1.54-4.3-.22-11.14,1.22-15.43.74-2.2,4.22-7.75,4.35-8.98.07-.69-.98-.62-1.33-1.61-2.05-5.88,2.68-15.3,6.17-20.07,1.15-1.58,5.11-5.31,5.65-6.53.4-.88.09-2.03.29-3.03,2.08-10.31,10.16-15.87,19.63-19.12,1.16-.4,3.69-.63,4.41-1.12.46-.31,1.76-3.48,2.78-4.6C119.93.08,141.44-2.6,153.7,2.57c1.09.46,3.64,2.23,4.39,2.28s4.98-2.02,6.44-2.39c11.52-2.93,22.95.89,31.6,8.63,5.49-3.31,13.21-2.89,19.33-1.63,8.48,1.75,19.55,9.82,24.51,16.83,2.29,3.24,2.41,2.48,5.18,4.79,6.21,5.18,13.07,15,12.38,23.44-.11,1.3-1.19,3.33-1.06,3.95.14.66,1.98,3.13,2.47,4.2,2.65,5.83,5.35,19.91,1.48,25.36-.42.59-1.41,1.02-1.45,1.22-.18.91,1.38,7.35,1.5,9.16.31,4.67-.13,10.14-1.15,14.71-.67,3.01-1.57,6.59-4.39,8.24,1.01,8.23,1.28,21.23-4.6,27.79-1.29,1.44-3.85,2.64-4.19,4.7-.19,1.15,1.34,3.65,1.68,5.17,3.79,16.83-12.55,37.2-30.44,32.3-.81-.22-3.64-1.57-3.9-1.52-.82.15-8.7,10.5-11.31,10.65-.17.25.6.68.85.81,3.09,1.65,7.09,2.84,10.35,4.41,16.65,7.98,37.57,22.21,48.14,37.48,5.03,7.27,5.39,10.65,2.76,19.23-3.64,11.87-12,22.56-18.14,33.2.64,1.91,2.32,2.66,3.08,4.91.57,1.68.32,4.28.75,5.16.48.99,3.11,1.77,3.72,4.4,1.94,8.37-7.01,14.81-14.08,16.61-6.01,1.53-11.54,1.42-17.58.29-1.71-.32-4.22-2.07-5.1.3l5.97,39.61c13.13,1.18,20.85,6.46,23.83,19.53.31,1.34.18,3.42.55,4.62s1.38,1.2,1.76,3.59c.03.17.19.33.37.37.09.63.08,1.94,0,2.58-.17,1.41-.78,3.81-1.85,4.8-5.01,3.9-10.8,4.93-16.9,6.17-16.41,3.32-30.44,4.09-47.07,1.9-4.13-.54-16.57-2.15-19.24-4.75-2.4-2.34-1.09-4.13-1.3-6.82-.18-2.34-1.16-5.09-1.47-7.57-.61-4.79.6-9.88-.02-13.82-.16-1.01-1.03-2.23-1.35-3.45-3.01-11.43-5.23-23.08-8.46-34.44-.18-.13-3.37-.7-3.68-.68-1.38.07-.51,1.45-.49,2.36.22,9.55.73,19.3.74,28.8,0,2.3-1.19,4.86-1.14,6.63.06,2.26,1.18,6.33,1.49,9.06.07.65.37.7.37.74.08.96.13,2.78,0,3.69-.18.04-.34.19-.37.37-.06.34.06.77,0,1.11-.22,1.24-.75,2.43-1,3.61-.65,3.15-.5,7.93-3.08,9.83-3.16,2.32-14.46,3.67-18.61,3.9-16.61.89-33.72.62-50.13-1.89-5.16-.79-13.86-2.37-18.3-4.95-1.52-.88-2.35-2.22-3.71-3.11,0-.42-.7-.95-.74-1.11ZM212.12,159.49c-1.89-1.67-2.09-5-2.25-7.35-3.69-.82-7.5-1.19-11.11-2.36-2.56-.82-8-3.99-10.08-4.16-.59-.05-3.75,1.04-4.9,1.21-10.81,1.55-21.22.63-31.2-4.01-5.63-2.62-10.63-7.27-16.4-9.07-9.48-2.95-24.09-1.55-22.59,11.52,1.15,10.06,18.36,11.85,25.83,8.67,2.37-1.01,4.03-3.12,6.64-2.95.38,2.04-1.03,3.67-2.21,5.17-7.79,6.55-19.01,4.89-27.68,1.11-1.54-1.1-3.52-2.69-4.8-4.06-2.01-3.47-3.37-7.83-2.21-11.81-3.42.66-6.74,1.62-10.19,2.16-1.49.24-4.11.1-5.42.48-1.18.35-4.53,7.15-5.06,8.6-1.27,3.5-1.8,7.54-1.84,11.27,0,.37-.01.74,0,1.11.44,12.43,7.82,23.58,17.71,30.63.13.11.24.26.37.37,2.31,1.91,7.18,4.74,9.96,5.91.1.04.26-.04.37,0,1.12.87,2.64,1.73,4.06,1.85.1.05.21.28.37.37,10.3,5.99,30.41,7.3,42.07,6.27.12-.01.25.01.37,0,13.22-1.27,26.56-6.11,36.9-14.39,2.41-1.4,4.66-3.69,6.27-5.91,3.04-2.26,4.43-6.12,6.9-8.81,1.74-.5,1.99,1.6,2.86,2.55,4.85,5.29,12.91,3.15,17.97-.52.53-.38,1.04-.54,1.05-1.34.51-.24,1.35-1.05,1.85-1.48.13-.11.24-.25.37-.37s.25-.24.37-.37c4.82-4.92,8.44-14.36,5.72-21.03-3.44-8.45-17.03-9.55-23.43-4.06-1.17.66-1.63.95-2.59,2.02-1.43,1.6-1.58,3.68-4.05,2.78ZM55.67,180.53c-1.84-4.93-5.76-7.75-6.27-14.21-.56-7.06,3.32-11.48,4.01-17.38,1.04-8.88-6.98-9.02-12.63-4.88-7.16,5.26-9.61,15.04-6.43,23.28,1.84,4.79,2.61,3.57,6.44,5.37,7.8,3.68,12.49,9.93,9.97,18.97-.61,2.2-3.46,5.01-3.52,5.33-.11.58,1.01,1.97,1.23,2.72,1.23,4.16.51,10.16-2.05,13.74-.32.44-1.75,1.4-1.79,1.61-.07.31.93,2.11,1.05,2.96.38,2.63-.02,5.28-1.44,7.53-2.76,3.31-5.9,5.41-10.33,5.91-1.23.14-3.56.13-4.8,0-2.69-.27-8.99-2.11-10.9-4.06-.33-.33-.61-.59-.54-1.11.63-.51,1.16-.29,1.84-.21,5.22.64,9.37,2.04,14.73.79.56-.13.91.61.77-.58.84-.1,1.83-.39,2.58-.74,3.26-1.5,4.88-5.96,2.59-9.05-4.34-5.84-26.24-6.33-32-2.84-1.19.72-1.79,1.42-1.96,2.83-.78,6.45,4.62,11.59,9.6,14.59.93.56,1.97,1.01,2.95,1.48,9.89,4.68,21.77,6.61,30.63-1.11.8-.69,1.15-1.09,1.85-1.85.38-.41,1-.71,1.47-1.3,2.85-3.61,5.21-9.3,5.91-13.83-2.47,1.13-3.74-.05-2.58-2.58.13-.12.24-.25.37-.37,1.77-1.63,2.49-3.21,3.15-5.52,2.38-8.38,1.45-18.07-3.89-25.11-.04-.12.04-.26,0-.37ZM42.75,193.08c.37.17.77,1.05,1.48.58,5.21-6.61,1.26-13.86-5.65-16.89-8.75-3.84-35.62-4.94-32.57,10.06.18.89,1.36,3.41,2.28,3.59,11.38-2.99,23.74-2.21,34.46,2.67ZM28.73,194.19c-2.75-1.1-6.77-.9-9.77-.73-7.04.39-16.49,2.04-13.72,11.5.23.77,1.59,3.32,2.34,3.58s7.18-1.31,8.8-1.42c5.87-.42,13-.07,18.63,1.66,1.21.37,6.06,2.77,6.41,2.71,1.36-.25,2.64-4.08,2.78-5.33.28-2.4.29-3.81-1.07-5.68-1.74-2.39-3.2-3.09-5.9-4.06-2.16-1.93-5.42-2.05-8.12-2.21-.12,0-.25,0-.37,0ZM78.48,210.12l-13.22-5.96c-.07.9.11,1.87,0,2.76-1.26,9.91-4.77,22.28-12.73,28.6-3.33,2.64-7.22,4.45-11.24,5.73,2.01,1.48,4.26,2.76,6.5,3.83,1.79.85,6.76,3.09,8.46,3.34,6.9,1.02,14.13-6.78,17.2-12.28,4.39-7.85,5.58-17.13,5.04-26.02ZM222.3,215.38c-6.94-3.92-14.61-7.53-22.19-10.02-6.23,12.03-19.89,18.04-32.54,20.84-10.53,2.33-21.53,1.96-32.16.5-3.4,10.64-6.9,21.3-8.8,32.35-.65,3.81-.95,7.7-1.56,11.52,1.52.2,3.08.59,4.6.75,3.6.37,7.42.36,11.03.78,2.16.25,4.59,1.25,5.75,3.19,1.79,3.01-.27,3.74,4.63,4.15,12.77,1.05,29.49.02,42.1-2.17,1.85-.32,7.1-.64,8.27-2.06,2.24-2.7,3.84-7.53,6.63-10.05.08-3.56,1.02-7.37-.47-10.71-2.66-1.9-5.81-3.48-8.47-5.29-.45-.31-2.19-1.57-2.31-1.83-.83-1.8.72-2.04,2.23-1.86,3.32.4,12.29,6.98,15.77,8.89.23.13.23.64.52.72,1.57.43,3.09-3.31,4.7-4.09s2.84.18,2.24,1.86c-.67,1.87-7.02,8.84-7.05,9.43-.02.52,1.98,3.12,2.45,3.68,6.88,8.3,20.03,16.71,31.09,16.46,3.83-6.25,8.02-12.96,10.47-19.91,3.15-8.95,2.39-11.74-3.03-19.21-7.36-10.14-23.01-21.76-33.89-27.92ZM108.8,208.58c-6.85,1.53-14.02,4.31-21.21,3.69-.93-.08-5.84-1.34-6.09-1.1,1.91,7.62.23,16.68-2.96,23.8-2.92,6.54-7.65,12.53-14.02,15.87,1.85.41,4.56,1.15,6.45,1.31,2.07.17,12.27.26,13.4-.84.4-.38,2.79-9,3.34-10.5,2.23-6.08,7.82-20.41,12.61-24.3,1.08-.88,3.28-2.37,4-.29.44,1.29-.4,1.07-.63,1.51-3.18,6.17-6.21,11.54-8.76,18.1-4.07,10.46-7.74,21.8-8.27,33.06,7.66,3.52,15.82,5.53,24.16,6.79,1.98-3.19,3.32-5.26,7.43-5.49,1.07-.06,2.71.88,3.06-.23,1.19-15.3,5.3-30.16,10.76-44.41-9.22-2.44-20.92-6.49-23.25-16.98ZM135.42,223.66c.74,1.15,2.45-.05,2.93-1.21.53-1.28,2.58-10.37-.79-7.44-.91.79-2.64,7.85-2.13,8.65ZM87.03,286.45c6.61,4.02,14.65,5.43,22.14,7.01l1.32-13.32c-3.04-.56-6.06-1.11-9.07-1.82-5.05-1.2-10.02-2.67-14.76-4.8-.12.02-.25-.02-.37,0l-1.84-1.11c-.14,3.46-.84,7.86-.39,11.27.25,1.88,1.72,1.99,2.97,2.75ZM127.89,275.13c-.43-.19-8.41-.92-9.31-.89-4.09.12-3.82,5.53-4.23,8.72s-1.07,7.83-1.14,11.06c-.05,2.16.84,3.26,2.89,3.78,4.54,1.17,16.86,2.33,21.68,2.34,1.96,0,2.98-.53,3.47-2.47.89-3.52,1.69-12.03,1.88-15.84.14-2.81.61-5.21-2.8-5.68-2.29-.32-6.19-.66-8.49-.73-2.04-.06-1.58.76-3.93-.29ZM198.47,280.92c-13.93,2.42-28.12,3.04-42.26,2.97l-8.79-.73-.6.9-1.48,13.47c1.78.08,3.59-.11,5.37-.02,11.22.6,22.74.16,33.93-1.1,2.03-.23,8.82-.9,10.27-1.54,1.14-.51,1.22-5.75,1.53-7.32.45-2.3,1.37-4.41,2.04-6.63ZM201.05,301.22c.43,1.96,1.09,3.37,1.85,5.17.53,1.27,1.15,2.89,1.85,4.06,2.45,4.13,6.39,7.52,10.7,9.6,8.85,4.27,27.6,5.62,33.04-4.41,3.78-6.97-3.61-6.44-8.11-5.16-2.55.73-7.52,3.79-9.34,3.98-.89.09-1.17-.17-1.2-1.05,0-.13-.02-.26,0-.37,2.58-2.78,4.24-6.51,4.42-10.32-8.44-.41-15.88-4.06-22.87-8.5-1.3-1.39-2.36-1.94-3.69-2.95-2.12-1.89-3.48-4.31-5.53-6.27-1.73,5.44-2.35,10.62-1.11,16.24ZM118.4,308.97c.07-2.2-.03-4.43-.02-6.63-2-.42-4.55-.54-6.31-1.53-.99-.56-2.36-2.83-3.16-3.19-1.41-.64-5.02-.83-6.83-1.3-6.53-1.68-12.91-3.91-19.1-6.54.37,2.22-.82,4.12-1.37,6.19-.65,2.44-4.46,18.14-3.74,19.22.34.21.84.17,1.15.42,5.4,4.31,28.14,10.12,35.33,10.33l3.69.74-.37-4.43c0-.37,0-.74,0-1.11.61-.38.37-1.4.38-2.02.04-3.41.26-6.82.36-10.15ZM167.11,301.96c-6.26-.07-12.56-.04-18.82,0-.77-.58-2.99-.54-3.8-.3-1.39.42-3.35,3.24-5.98,2.54l-15.69-1.35c-1.45,1.08-.38,20.84-.74,23.95.19.83,3.09.53,3.85.65,19.55,3.09,47.45,2.35,67.19-.04,6.44-.78,12.74-2.11,19.01-3.69l-6.34-4.45c-5.54-5.19-9.23-12.63-9.89-20.27l-28.78,2.95ZM243.12,305.65c1.27-.18,2.06.53,2.24-1.29.17-1.67-.85-3.55-2.1-4.6-.53-.11-1.29,1.06-1.87,1.4-.51.3-2.57,1.1-2.64,1.23-.1.16-.38,2.99-.54,3.71-.07.33-.95,2.29-.45,2.13l4.98-2.58c.12-.02.25.02.37,0ZM208.77,328.93l-4.03.9,5.76,38.96c1.35-.31,2.36-1.05,3.84-.76v-1.67s-5.57-37.42-5.57-37.42Z" style="fill:#16110c;"/><path d="M161.57,391.27c.32,2.47,1.29,5.23,1.47,7.57.21,2.69-1.1,4.48,1.3,6.82,2.67,2.6,15.11,4.21,19.24,4.75,16.63,2.19,30.66,1.42,47.07-1.9,6.1-1.23,11.89-2.27,16.9-6.17.02-.01.2.31.36.18,1.01-.77,1.79-3.38,2.22-4.61,3.59.51,6.34.79,9.6,2.4,6.27,3.09,4.44,6.85-1.47,8.49-7.75,2.15-16.21,2.07-24.17,2.77-50.45,4.4-101.54,3.64-152.04.37-15.06-.97-31.22-1.24-45.95-4.6-1.78-.41-3.95-.61-2.59-2.98.5-.87,1.35-.91,1.86-1.27,2.35-.66,4.64-1.39,7.01-2.03,2.64-.71,4.64-.77,7.17-1.32,1.01-.22,1.69-1.07,3.01-1.1,1.2-.03.86.63.98.68.15.06.26-.3.28-.29,1.36.89,2.2,2.23,3.71,3.11,4.43,2.58,13.14,4.16,18.3,4.95,16.41,2.51,33.52,2.78,50.13,1.89,4.16-.22,15.45-1.58,18.61-3.9,2.59-1.9,2.43-6.69,3.08-9.83.25-1.19.78-2.37,1-3.61l12.92-.37Z" style="fill:#9f7a63;"/><path d="M53.08,397.92c.04.16.74.69.74,1.11-.02-.01-.13.35-.28.29-.12-.05.22-.71-.98-.68-1.31.04-2,.89-3.01,1.1-2.53.55-4.53.61-7.17,1.32-2.37.64-4.66,1.36-7.01,2.03.56-.39.67-.75,1.59-1.18,4.82-2.22,10.91-3.05,16.12-3.99Z" style="fill:#edbd8d;"/><path d="M250.13,397.92c-.43,1.23-1.21,3.84-2.22,4.61-.17.13-.35-.19-.36-.18,1.07-.99,1.67-3.39,1.85-4.8.28-.03.62.35.74.37Z" style="fill:#edbd8d;"/><path d="M249.39,394.96c-.18-.04-.34-.2-.37-.37.18.04.34.2.37.37Z" style="fill:#edbd8d;"/><path d="M139.43,153.96c-1.45-.45-3.11.59-4.62.74-1.85.18-5.16.17-7.02.02-7.24-.6-14.6-4.33-13.78-12.71.24-2.41.65-2.89,2.02-4.43.22-.25,2.28-2.63,2.46-2.7.67-.24,1.26,0,1.86-.12.28-.06.23-.62.77-.79,6.96-2.11,16.11-.36,21.84,3.73,12.77,9.11,25.87,11.93,42.32,9.53.63-.09,1.24-.52,1.96-.62,3.28-.47,9.17,3.09,12.78,4.13,2.87.83,5.89,1.21,8.79,1.91.76,2.13.9,5.97,3.3,6.85s2.62-1.18,4.05-2.78c.96-1.08,1.43-1.36,2.59-2.02,8.05-4.58,21.12-4.06,23.57,6.5.64,2.76-.23,4.2-.68,6.62-.18.98.06,1.96-.2,3.12-.66,2.93-3.65,6.16-4.99,8.85-.12.12-.24.25-.37.37l-.37.37c-.49.43-1.34,1.23-1.85,1.48-.21.1-.87-.17-1.07.05-.14.15.12.84-.25,1.09-.29.2-.95.12-1.33.36-3.25,2.04-6.32,3.43-10.45,2.93-1.9-.23-1.92-1.41-2.29-1.49-.57-.13-1.17.15-1.86-.1-.15-.05-2.12-2.08-2.19-2.21-.37-.68.05-1.8-1.85-2.04-.42-.05-.71.45-1.1.54-.32.07-.82-.28-.85-.25-.05.06-.02.97-.21,1.46-.23.57-1.63,2.33-1.99,2.88-1.08,1.67-2.19,3.33-3.33,4.89-1.62,2.22-3.86,4.5-6.27,5.91-1.67.97-3.23,2.03-4.89,3.06-8.82,5.5-19.32,8.98-29.87,10.33-.57.07-2.44,0-2.14,1-.12.01-.25-.01-.37,0-.28-.95-.75-.45-1.32-.43-11,.25-20.99.16-31.62-2.98-2.98-.88-6.08-2.99-9.13-2.87-.16-.09-.27-.32-.37-.37-1.59-.84-2.29-1.12-4.06-1.85-.11-.04-.26.04-.37,0l-5.22-3.46-4.75-2.45c-.13-.11-.24-.26-.37-.37-2.21-1.86-4.21-4.22-5.91-6-3.11-3.26-6.52-6.79-7.38-11.09-.03-.13-.91-.57-1.18-1.45-.87-2.82-2.05-6.34-2.47-9.38-.12-.87.76-2.85-.77-2.71-.01-.37,0-.74,0-1.11,1.11.21.71-.56.74-1.27.17-4.82,1.13-10.17,3.71-14.32.22-.35,1.27-.97,1.34-1.12.35-.8.1-2.19,1.12-2.85,4.91.19,9.83-.88,14.49-2.21.63,1.55-.23,3.4.09,4.87.44,2.03,1.87,4.72,3.23,6.2,1.27,1.37,3.26,2.96,4.8,4.06,5.75,4.1,16.58,4.82,23.34,2.56.28-.09.23-.51.59-.68,1.63-.74,2.49-1.4,3.75-2.99,1.19-1.49,2.59-3.12,2.21-5.17-2.61-.17-4.27,1.95-6.64,2.95ZM186.29,161.34c.06-1.02.27-.93-.52-1.53-1.1-.82-3.15-2.56-4.43-2.97-.74-.24-6.68-1.09-7.42-1.08-.14,0-1.98,1.34-2.39,1.52-.12.02-.26-.03-.37,0-.47.12-1.76.32-1.83.38-.1.1-.1,2.82,0,2.92.21.21,4.59.87,5.34,1.12.46.15.6-.28.56.57-.06,1.36-3.38,5.23-4.44,6.45-.93,1.07-.87.83-1.85,1.48-11.3,7.52-25.42,9.79-38.89,6.6-.49-.12-1.38-.64-1.7.04-6.12-1.89-14.03-6.43-17.13-12.21-.25-.47.25-1.49-.96-1.99-3.25-1.33-6.14,2.08-5.88,5.12s3.21.55,3.98,1c.11.06.89,1.65,1.35,2.17,4.38,4.98,8.5,7.75,14.58,10.33.04,1.29,2.85,1.58,4.06,1.85.12.03.25-.03.37,0,.36.59,1.01.64,1.61.79,9.91,2.53,20.39,1.86,29.68-1.13,1.45-.47,3.07-.59,4.08-.86.08-.02.59-1.06.93-1.25.59-.32,1.56-.42,2.31-.82,2.79-1.49,4.03-2.47,6.42-4.85.98-.97,1.99-1.97,2.95-2.95,1.89-1.91,3.81-4.65,4.43-7.38.16-.19.19-.58.54-.67,1.75.55,4.75,4.55,6.47,2.52.56-.67.48-1.12.27-1.93-.09-.34-.98-2.76-1.75-2.5-.14-.24-.28-.62-.37-.74ZM232.79,173.15s-.15.72.22.76c.66.07,1.21-.46,1.7-.79s3.02-4.06,3.14-4.69c.46-2.41.34-5.49-1.17-7.48-.22-.29-2.49-2.52-2.67-2.56-1.23-.25-4.48-.18-5.74.08-1.66.34-5.18,1.91-5.81,3.6-.19.17-.57.55-.74.74-2.14.55-4.56,6.97-3.64,8.43.13.21,1.67.6,2.08.33,3.24-3.26,6.29-8.18,11.63-7.3,2.72,2.78.5,5.65.25,8.34-.08.81.67.44.75.52ZM146.44,196.77c.08-.05,1.16-.01,1.74-.28,1.44-.67,2.6-1.5,3.84-2.45.24-.19.87-.12,1-.28.19-.25-.05-.88.08-1.11.27-.5,1.17-.42.72-1.88-.04-.13-1.58-1.26-1.71-1.28-.99-.2-3.39,1.13-4.42,1.35-4.45.94-8.28,1.11-12.69-.14-1.48-.42-2.24-1.66-3.5-1.66-1.75,0-3.42,1.47-2.67,3.24.08.2,2.66,2.76,3.03,3.05.23.18,2.17,1.41,2.31,1.45,1.57.45,11.51,1.28,12.2.67.17-.15.04-.62.07-.64Z" style="fill:#edbd8d;"/><path d="M222.3,215.38c10.88,6.15,26.53,17.78,33.89,27.92,5.42,7.47,6.18,10.26,3.03,19.21-2.44,6.95-6.64,13.67-10.47,19.91-11.05.25-24.21-8.16-31.09-16.46-.47-.56-2.47-3.17-2.45-3.68.02-.59,6.38-7.56,7.05-9.43.6-1.68-.58-2.66-2.24-1.86s-3.13,4.52-4.7,4.09c-.29-.08-.29-.6-.52-.72-3.49-1.91-12.45-8.49-15.77-8.89-1.51-.18-3.05.06-2.23,1.86.12.26,1.86,1.52,2.31,1.83,2.66,1.82,5.81,3.39,8.47,5.29,1.49,3.34.55,7.14.47,10.71-2.79,2.52-4.38,7.35-6.63,10.05-1.18,1.42-6.42,1.74-8.27,2.06-12.61,2.19-29.33,3.22-42.1,2.17-4.9-.4-2.84-1.14-4.63-4.15-1.15-1.94-3.59-2.94-5.75-3.19-3.6-.42-7.42-.41-11.03-.78-1.52-.16-3.09-.55-4.6-.75.61-3.82.9-7.71,1.56-11.52,1.9-11.06,5.39-21.71,8.8-32.35,10.63,1.46,21.63,1.83,32.16-.5,12.66-2.8,26.32-8.81,32.54-20.84,7.57,2.49,15.25,6.09,22.19,10.02ZM149.56,235.73c-2.72-4.03-7.44-5.33-11.7-2.78-1.97,1.18-4.33,5.64-3.87,7.82.49,2.3,2,5.05,4.07,6.27,2.74,1.62,4.76,1.68,7.64.47,4.79-2.02,6.8-7.45,3.87-11.79ZM144.07,266.74c3.3-4.36,1.82-11.11-3.53-12.95-7.81-2.69-14.44,6.12-9.38,12.7,3.06,3.97,9.77,4.4,12.91.25Z" style="fill:#b3311f;"/><path d="M108.8,208.58c2.33,10.49,14.04,14.54,23.25,16.98-5.46,14.25-9.57,29.12-10.76,44.41-.35,1.1-1.98.17-3.06.23-4.11.23-5.45,2.3-7.43,5.49-8.35-1.26-16.5-3.27-24.16-6.79.54-11.26,4.2-22.6,8.27-33.06,2.56-6.56,5.58-11.94,8.76-18.1.23-.44,1.07-.22.63-1.51-.72-2.08-2.91-.59-4,.29-4.79,3.88-10.38,18.22-12.61,24.3-.55,1.5-2.94,10.12-3.34,10.5-1.13,1.09-11.33,1.01-13.4.84-1.89-.15-4.6-.9-6.45-1.31,6.38-3.34,11.1-9.33,14.02-15.87,3.18-7.12,4.86-16.18,2.96-23.8.25-.24,5.16,1.02,6.09,1.1,7.19.62,14.36-2.16,21.21-3.69Z" style="fill:#b3311f;"/><path d="M167.11,301.96l28.78-2.95c.67,7.64,4.36,15.08,9.89,20.27l6.34,4.45c-6.27,1.58-12.57,2.91-19.01,3.69-19.74,2.4-47.64,3.13-67.19.04-.76-.12-3.66.17-3.85-.65.36-3.11-.71-22.87.74-23.95l15.69,1.35c2.63.69,4.59-2.12,5.98-2.54.81-.25,3.04-.28,3.8.3-.8,0-1.6-.03-2.4,0-.32.01-1.34-.15-.74.37h23.98c.5-.66-1.81-.37-2.03-.37Z" style="fill:#b3311f;"/><path d="M44.23,225.56c2.22-2.67,2.76-5.89,1.83-9.34-.09-.32-.71-.29-.73-.44-.18-1.22.7-.99,1.01-1.4,3.87-5.32,4.08-11.24,1.95-17.36,2.46-3.3,4.04-6.55,3.65-11.09-.68-7.92-5.31-10.98-11.84-14-.53-.25-.62-.9-.92-.98-.58-.15-1.28.13-1.95-.19-.92-.43-.55-1.71-.81-1.98-.17-.17-.78.12-1.04-.3-4.33-7.24-1.14-20.18,6.21-24.36,6.16-3.51,12.35-2.97,11.12,5.57-.46,3.18-3.19,7.79-3.65,11.12-.94,6.89.8,10.61,3.79,15.75.81,1.39,1.18,3.52,2.83,3.98.04.1-.04.25,0,.37.65,2.12,2.08,4.02,2.83,6.21,1.96,5.7,2.07,12.14.77,17.88-.54,2.38-1.76,4.38-2.87,6.54-.13.12-.24.25-.37.37-.71.65-1.61.04-1.09,2.31.03.12,1.22,1.19,1.43,1.23,1.23.24,1.86-1.22,1.25,1.52-.53,2.35-2.55,6.99-3.81,9.06-.65,1.07-2.59,2.25-2.57,3.59-.69.76-1.05,1.15-1.85,1.85-2.05,1.02-3.81,2.65-6.02,3.39-6.74,2.28-15.19.71-21.75-1.28-.87-.26-1.71-1.19-2.87-1.01-.98-.47-2.02-.91-2.95-1.48l-2.36-2.43c-2.28-.26-1.82-1.96-2.13-2.31-.14-.16-.83-.02-1.22-.44-.24-.26-2.99-4.78-3.06-5.07-.28-1.04-.21-4.19.12-5.25.5-1.62,2.69-2.16,4.13-2.5,5.71-1.34,23.45-1.63,27.61,2.83,1.43,1.54,1.71,4.46,1.25,6.42-.06.25-.56.25-.6.38-.16.43-.07.94-.25,1.23-.73,1.17-2.6.45-1.72,1.6-.75.35-1.74.63-2.58.74-1.59.2-3.47,0-4.98,0h-6.64c-.18,0-1-.58-1.56-.66-.85-.11-4.01-.49-4.16.66-.07.52.22.78.54,1.11,1.91,1.95,8.2,3.78,10.9,4.06l-.19.37h5.18l-.19-.37c4.43-.5,7.58-2.59,10.33-5.91Z" style="fill:#edbd8d;"/><path d="M114.34,325.95c-7.18-.21-29.93-6.02-35.33-10.33-.31-.24-.81-.21-1.15-.42-.72-1.08,3.1-16.78,3.74-19.22.55-2.07,1.74-3.97,1.37-6.19,6.2,2.63,12.57,4.86,19.1,6.54,1.81.47,5.43.66,6.83,1.3.79.36,2.17,2.63,3.16,3.19,1.76,1,4.31,1.11,6.31,1.53-.02,2.2.09,4.43.02,6.63l-.73-1.11c-.04,4.42.04,8.86,0,13.28,0,.37,0,.74,0,1.11-.02,1.23.02,2.47,0,3.69-1.1-.02-2.22.03-3.32,0Z" style="fill:#b3311f;"/><path d="M201.05,301.22v-8.67c.04-1.32.62-2.53.92-3.71.06-.23-.2-1.81.78-2.01,1.33-.28.75.6,1.25,1.21,1.03,1.25,2.5,2.31,3.7,3.22,1.33,1.02,2.39,1.56,3.69,2.95,4.04,4.33,13.32,7.96,19.75,8.85.78.11,1.61-.05,2.4,0,0,.54.08,1.1-.02,1.64-.12.62-1.23,4.11-1.49,4.71-.42.98-1.7,1.53-2.18,3.62-.02.11,0,.24,0,.37,0,.07-.24.16-.24.29.08,2.74,3.09.39,4.33-.08,2.83-1.08,7.02-3.29,10.21-3.44,1.24-.06,2.78.57,4.15.27-.18,1.24.26,3.05-.01,4.17-.06.25-.55.25-.6.38-.17.43-.06.89-.25,1.23-3.54,6.34-18.17,7.71-24.76,6.01l-7.22-2.19c-4.31-2.08-8.25-5.47-10.7-9.6l-.24-1.42-1.61-2.64c-.76-1.8-1.41-3.21-1.85-5.17Z" style="fill:#edbd8d;"/><path d="M78.48,210.12c.54,8.9-.65,18.17-5.04,26.02-3.07,5.49-10.3,13.29-17.2,12.28-1.71-.25-6.68-2.49-8.46-3.34-2.24-1.07-4.49-2.35-6.5-3.83,4.02-1.28,7.92-3.08,11.24-5.73,7.96-6.32,11.47-18.69,12.73-28.6.11-.89-.06-1.86,0-2.76l13.22,5.96Z" style="fill:#b3311f;"/><path d="M198.47,280.92c-.67,2.22-1.59,4.33-2.04,6.63-.31,1.58-.39,6.81-1.53,7.32-1.44.65-8.23,1.31-10.27,1.54-11.19,1.25-22.71,1.7-33.93,1.1-1.78-.1-3.59.1-5.37.02l1.48-13.47.6-.9,8.79.73c14.14.08,28.34-.55,42.26-2.97Z" style="fill:#f1dab4;"/><path d="M127.89,275.13c2.36,1.05,1.89.23,3.93.29,2.3.07,6.2.41,8.49.73,3.41.48,2.93,2.87,2.8,5.68-.18,3.81-.98,12.32-1.88,15.84-.49,1.94-1.51,2.47-3.47,2.47-4.81-.01-17.14-1.17-21.68-2.34-2.05-.53-2.94-1.62-2.89-3.78.07-3.23.72-7.76,1.14-11.06s.15-8.6,4.23-8.72c.9-.03,8.88.7,9.31.89Z" style="fill:#edbd8d;"/><path d="M28.73,194.19c.12,0,.25,0,.37,0,2.64.95,5.47,1.26,8.12,2.21s4.16,1.67,5.9,4.06c0,1.74.91,3.14.72,4.94-.11,1.02-1.45,5.13-2.46,5.38-1.36.34-1.12-.52-1.48-.72-3.46-1.9-7.55-3.18-11.64-3.59s-12.01-.54-15.31.6c-1.23.42-2.62-.17-3.53.02-.2.04-.29,1.29-1.87.7-.71-.26-1.99-3.35-2.07-4.2-.44-4.43.75-6.57,4.83-8.09,5.01-1.86,13.06-1.68,18.41-1.33Z" style="fill:#edbd8d;"/><path d="M86.66,273.54c-.18.8.4.83.95,1.06,3.73,1.54,7.58,3.1,11.87,4.02.58.12,1.58.34,1.94-.29,3.01.71,6.03,1.26,9.07,1.82l-1.32,13.32c-7.49-1.59-15.52-2.99-22.14-7.01.49-1.02-1.99-1.42-2.13-1.56-1.1-1.05-.07-8.52-.09-10.36.04-.18,1.3-.96,1.48-1,.12-.02.25.02.37,0Z" style="fill:#f1dab4;"/><path d="M208.77,328.93l5.58,37.42v1.67c-1.49-.29-2.5.45-3.85.76l-5.76-38.96,4.03-.9Z" style="fill:#b3311f;"/><path d="M28.73,194.19c-5.35-.35-13.4-.53-18.41,1.33-4.08,1.52-5.28,3.66-4.83,8.09.08.85,1.37,3.94,2.07,4.2,1.58.59,1.67-.66,1.87-.7.91-.19,2.3.41,3.53-.02,3.3-1.14,11.35-.99,15.31-.6s8.18,1.68,11.64,3.59c.36.2.12,1.06,1.48.72,1-.25,2.35-4.36,2.46-5.38.19-1.81-.72-3.2-.72-4.94,1.36,1.87,1.34,3.28,1.07,5.68-.15,1.26-1.42,5.08-2.78,5.33-.34.06-5.2-2.34-6.41-2.71-5.63-1.73-12.76-2.08-18.63-1.66-1.63.12-8.04,1.68-8.8,1.42s-2.11-2.81-2.34-3.58c-2.77-9.46,6.68-11.11,13.72-11.5,3-.17,7.03-.37,9.77.73Z" style="fill:#f1dab4;"/><path d="M135.42,223.66c-.51-.79,1.22-7.85,2.13-8.65,3.37-2.93,1.32,6.15.79,7.44-.48,1.16-2.19,2.36-2.93,1.21Z" style="fill:#f1dab4;"/><path d="M161.57,210.42c-11.65,1.03-31.76-.29-42.07-6.27,3.05-.12,6.15,1.99,9.13,2.87,10.63,3.13,20.62,3.23,31.62,2.98.57-.01,1.04-.52,1.32.43Z" style="fill:#f1dab4;"/><path d="M242.75,305.65c-1.44.27-2.63.88-4.06,1.11.38-.88.2-1.97.37-2.77.18-.86.71-.68.99-1.05.17-.23.05-.73.19-.87s2.91-.97,3.41-1.59c.95,1.95,1.97,4.23-.53,5.18-.12.02-.25-.02-.37,0Z" style="fill:#edbd8d;"/><path d="M236.48,179.79c1.33-2.69,4.33-5.92,4.99-8.85.26-1.17.02-2.14.2-3.12.45-2.42,1.32-3.86.68-6.62-2.46-10.56-15.52-11.09-23.57-6.5,6.4-5.48,19.99-4.39,23.43,4.06,2.72,6.67-.9,16.11-5.72,21.03Z" style="fill:#f1dab4;"/><path d="M139.43,153.96c-7.48,3.17-24.68,1.38-25.83-8.67-1.5-13.07,13.11-14.47,22.59-11.52,5.76,1.79,10.77,6.45,16.4,9.07,9.98,4.64,20.39,5.56,31.2,4.01,1.15-.16,4.31-1.26,4.9-1.21,2.08.17,7.52,3.34,10.08,4.16,3.62,1.16,7.42,1.54,11.11,2.36.16,2.35.36,5.67,2.25,7.35-2.4-.87-2.55-4.71-3.3-6.85-2.91-.7-5.92-1.08-8.79-1.91-3.61-1.04-9.5-4.6-12.78-4.13-.72.1-1.33.53-1.96.62-16.46,2.41-29.56-.42-42.32-9.53-5.73-4.09-14.89-5.85-21.84-3.73-.54.16-.49.73-.77.79-.6.13-1.2-.12-1.86.12-.18.06-2.24,2.45-2.46,2.7-1.36,1.54-1.78,2.01-2.02,4.43-.82,8.38,6.54,12.11,13.78,12.71,1.86.16,5.17.17,7.02-.02,1.51-.15,3.17-1.18,4.62-.74Z" style="fill:#f1dab4;"/><path d="M55.67,180.9c5.34,7.04,6.27,16.73,3.89,25.11-.66,2.31-1.38,3.9-3.15,5.52,1.11-2.17,2.33-4.16,2.87-6.54,1.3-5.74,1.18-12.18-.77-17.88-.75-2.19-2.19-4.09-2.83-6.21Z" style="fill:#f1dab4;"/><path d="M37.59,225.56c-.89-1.15.99-.42,1.72-1.6.18-.29.09-.8.25-1.23.05-.13.54-.13.6-.38.46-1.96.19-4.88-1.25-6.42-4.17-4.46-21.9-4.17-27.61-2.83-1.44.34-3.63.89-4.13,2.5-.33,1.06-.4,4.21-.12,5.25.08.29,2.82,4.81,3.06,5.07.39.42,1.08.28,1.22.44.3.35-.15,2.05,2.13,2.31l2.36,2.43c-4.98-3-10.38-8.14-9.6-14.59.17-1.41.77-2.11,1.96-2.83,5.76-3.48,27.66-3,32,2.84,2.3,3.09.67,7.55-2.59,9.05Z" style="fill:#f1dab4;"/><path d="M42.75,193.08c-10.71-4.88-23.08-5.66-34.46-2.67-.92-.17-2.1-2.7-2.28-3.59-3.06-15,23.82-13.9,32.57-10.06,6.91,3.04,10.86,10.28,5.65,16.89-.71.47-1.11-.41-1.48-.58.38.14,1.98-.72,2.23-.99,1.55-1.77,1.22-7.01.27-9.07-.08-.19-2.25-3.1-2.41-3.23-6.64-5.52-21.29-6.2-29.23-3.48-3.21,1.1-5.71,2.43-6.76,5.79s-.48,5.19,1.59,8.03c1.2-.74,3.23-1.15,4.7-1.38,10.63-1.65,16.88.21,26.77,2.13.18.03,2.24,1.97,2.84,2.21Z" style="fill:#f1dab4;"/><path d="M44.23,225.56c1.43-2.25,1.82-4.9,1.44-7.53-.12-.85-1.12-2.65-1.05-2.96.05-.21,1.48-1.17,1.79-1.61,2.56-3.57,3.28-9.57,2.05-13.74-.22-.75-1.34-2.14-1.23-2.72.06-.32,2.91-3.13,3.52-5.33,2.52-9.03-2.17-15.28-9.97-18.97-3.82-1.81-4.59-.59-6.44-5.37-3.17-8.24-.73-18.03,6.43-23.28,5.64-4.14,13.67-4,12.63,4.88-.69,5.9-4.57,10.32-4.01,17.38.51,6.47,4.42,9.28,6.27,14.21-1.65-.46-2.02-2.59-2.83-3.98-2.99-5.14-4.73-8.86-3.79-15.75.45-3.33,3.19-7.93,3.65-11.12,1.23-8.54-4.96-9.08-11.12-5.57-7.35,4.18-10.54,17.12-6.21,24.36.25.42.87.13,1.04.3.26.27-.11,1.54.81,1.98.67.32,1.38.04,1.95.19.3.08.39.74.92.98,6.54,3.02,11.16,6.08,11.84,14,.39,4.54-1.19,7.79-3.65,11.09,2.14,6.12,1.93,12.04-1.95,17.36-.3.41-1.19.18-1.01,1.4.02.15.65.12.73.44.93,3.45.39,6.67-1.83,9.34Z" style="fill:#f1dab4;"/><path d="M198.84,196.03c-10.34,8.28-23.68,13.13-36.9,14.39-.31-1,1.56-.93,2.14-1,10.56-1.35,21.06-4.83,29.87-10.33,1.66-1.04,3.22-2.09,4.89-3.06Z" style="fill:#f1dab4;"/><path d="M143.86,156.17c-1.26,1.59-2.12,2.25-3.75,2.99-.36.16-.31.58-.59.68-6.76,2.26-17.59,1.54-23.34-2.56,8.66,3.79,19.88,5.44,27.68-1.11Z" style="fill:#f1dab4;"/><path d="M86.66,163.92c.03-3.72.56-7.76,1.84-11.27.53-1.44,3.88-8.25,5.06-8.6,1.31-.39,3.93-.25,5.42-.48,3.45-.55,6.78-1.5,10.19-2.16-1.15,3.98.21,8.33,2.21,11.81-1.36-1.47-2.79-4.17-3.23-6.2-.32-1.47.53-3.32-.09-4.87-4.67,1.33-9.58,2.4-14.49,2.21-1.02.66-.77,2.05-1.12,2.85-.07.16-1.12.77-1.34,1.12-2.58,4.15-3.53,9.5-3.71,14.32-.03.71.37,1.48-.74,1.27Z" style="fill:#f1dab4;"/><path d="M18.77,232.57c1.16-.18,1.99.75,2.87,1.01,6.55,1.98,15.01,3.55,21.75,1.28,2.21-.75,3.97-2.37,6.02-3.39-8.86,7.71-20.73,5.78-30.63,1.11Z" style="fill:#f1dab4;"/><path d="M35,226.29c.14,1.19-.21.45-.77.58-5.36,1.25-9.51-.15-14.73-.79-.68-.08-1.21-.3-1.84.21.15-1.15,3.31-.77,4.16-.66.56.07,1.38.66,1.56.66h6.64c1.51,0,3.39.2,4.98,0Z" style="fill:#f1dab4;"/><path d="M86.66,165.03c1.52-.15.65,1.84.77,2.71.42,3.04,1.61,6.56,2.47,9.38.27.89,1.16,1.33,1.18,1.45.86,4.31,4.27,7.84,7.38,11.09,1.69,1.77,3.69,4.14,5.91,6-9.89-7.05-17.27-18.2-17.71-30.63Z" style="fill:#f1dab4;"/><path d="M211.39,294.21c6.99,4.44,14.43,8.09,22.87,8.5-.17,3.81-1.84,7.54-4.42,10.32.48-2.09,1.75-2.63,2.18-3.62.26-.6,1.37-4.09,1.49-4.71.1-.54.02-1.1.02-1.64-.78-.05-1.62.1-2.4,0-6.43-.89-15.71-4.53-19.75-8.85Z" style="fill:#f1dab4;"/><path d="M201.05,301.22c-1.24-5.62-.62-10.79,1.11-16.24,2.05,1.96,3.42,4.38,5.53,6.27-1.19-.91-2.66-1.97-3.7-3.22-.5-.61.08-1.49-1.25-1.21-.97.2-.72,1.79-.78,2.01-.31,1.18-.88,2.39-.91,3.71v8.67Z" style="fill:#f1dab4;"/><path d="M148.29,301.96c6.26-.04,12.56-.07,18.82,0,.22,0,2.53-.29,2.03.37h-23.98c-.6-.52.42-.36.74-.37.8-.03,1.6,0,2.4,0Z" style="fill:#9f7a63;"/><path d="M215.45,320.04l7.22,2.19c6.59,1.7,21.22.33,24.76-6.01.19-.34.08-.8.25-1.23.05-.13.54-.13.6-.38.28-1.12-.17-2.93.01-4.17-1.37.3-2.91-.33-4.15-.27-3.2.15-7.38,2.35-10.21,3.44-1.24.47-4.25,2.82-4.33.08,0-.13.23-.22.24-.29.03.88.3,1.14,1.2,1.05,1.82-.19,6.79-3.25,9.34-3.98,4.51-1.28,11.9-1.81,8.11,5.16-5.44,10.03-24.19,8.68-33.04,4.41Z" style="fill:#f1dab4;"/><path d="M101.42,278.33c-.36.63-1.37.41-1.94.29-4.29-.93-8.14-2.48-11.87-4.02-.55-.23-1.13-.26-.95-1.06,4.74,2.13,9.72,3.6,14.76,4.8Z" style="fill:#fff;"/><path d="M86.29,273.54c-.18.04-1.44.82-1.48,1,.02,1.84-1.01,9.31.09,10.36.14.14,2.63.54,2.13,1.56-1.25-.76-2.73-.87-2.97-2.75-.45-3.41.25-7.81.39-11.27l1.84,1.11Z" style="fill:#fff;"/><path d="M205.11,190.13c1.14-1.57,2.26-3.22,3.33-4.89.36-.55,1.76-2.3,1.99-2.88.2-.5.17-1.4.21-1.46.03-.03.53.32.85.25.39-.09.68-.59,1.1-.54,1.89.23,1.48,1.35,1.85,2.04.07.14,2.05,2.16,2.19,2.21.69.25,1.3-.03,1.86.1.37.08.39,1.26,2.29,1.49,4.13.5,7.2-.88,10.45-2.93.38-.24,1.04-.17,1.33-.36.38-.25.11-.94.25-1.09.2-.22.86.05,1.07-.05-.02.8-.52.96-1.05,1.34-5.06,3.67-13.12,5.81-17.97.52-.87-.95-1.12-3.06-2.86-2.55-2.47,2.69-3.86,6.55-6.9,8.81Z" style="fill:#f1dab4;"/><path d="M243.12,305.65c2.5-.95,1.48-3.23.53-5.18-.5.62-3.27,1.45-3.41,1.59s-.02.64-.19.87c-.28.37-.81.19-.99,1.05-.17.8.01,1.89-.37,2.77,1.43-.23,2.62-.83,4.06-1.11l-4.98,2.58c-.5.16.38-1.81.45-2.13.15-.72.44-3.55.54-3.71.08-.12,2.13-.93,2.64-1.23.57-.33,1.34-1.51,1.87-1.4,1.25,1.05,2.27,2.93,2.1,4.6-.18,1.81-.98,1.11-2.24,1.29Z" style="fill:#f1dab4;"/><path d="M118.4,308.97c-.11,3.34-.32,6.74-.36,10.15,0,.62.24,1.64-.38,2.02.04-4.42-.04-8.86,0-13.28l.73,1.11Z" style="fill:#9f7a63;"/><path d="M37.22,196.4c-2.65-.95-5.47-1.27-8.12-2.21,2.7.17,5.96.28,8.12,2.21Z" style="fill:#f1dab4;"/><path d="M56.04,211.9c-1.16,2.54.11,3.72,2.58,2.58-.7,4.53-3.06,10.22-5.91,13.83-.47.59-1.09.89-1.47,1.3-.02-1.35,1.92-2.52,2.57-3.59,1.26-2.07,3.28-6.71,3.81-9.06.61-2.74-.02-1.28-1.25-1.52-.21-.04-1.4-1.1-1.43-1.23-.52-2.28.38-1.67,1.09-2.31Z" style="fill:#f1dab4;"/><path d="M117.66,322.26l.37,4.43-3.69-.74c1.1.03,2.22-.02,3.32,0,.01-1.23-.02-2.47,0-3.69Z" style="fill:#9f7a63;"/><path d="M29.1,231.46c1.24.13,3.57.14,4.8,0l.19.37h-5.18l.19-.37Z" style="fill:#f1dab4;"/><path d="M119.14,203.78c-1.42-.11-2.94-.97-4.06-1.85,1.77.73,2.46,1.01,4.06,1.85Z" style="fill:#f1dab4;"/><path d="M104.74,196.03l4.75,2.45,5.22,3.46c-2.78-1.16-7.66-3.99-9.96-5.91Z" style="fill:#f1dab4;"/><path d="M204.74,310.44c-.69-1.17-1.31-2.79-1.85-4.06l1.61,2.64.24,1.42Z" style="fill:#f1dab4;"/><path d="M149.02,386.47s-.29-.08-.37-.74l.37.74Z" style="fill:#9f7a63;"/><path d="M235.74,180.53l.37-.37c-.13.12-.24.26-.37.37Z" style="fill:#f1dab4;"/><path d="M148.66,390.53c.03-.17.19-.32.37-.37-.03.17-.19.33-.37.37Z" style="fill:#9f7a63;"/><path d="M186.29,161.34c.09.12.23.49.37.74.77,1.31,1.51,2.87,1.48,4.43-1.72,2.04-4.72-1.97-6.47-2.52-.35.09-.38.48-.54.67-1.56,1.86-2.67,5.4-4.43,7.38-.97.98-1.98,1.98-2.95,2.95-6.31,4.78-13.12,7.74-20.96,9.12-8.48,1.5-15.71.8-24.06-1-.12-.03-.25.03-.37,0-1.16-.84-2.71-1.27-4.06-1.85-6.08-2.58-10.19-5.35-14.58-10.33-.46-.52-1.24-2.11-1.35-2.17-.77-.46-3.71,2.07-3.98-1s2.63-6.45,5.88-5.12c1.21.49.7,1.51.96,1.99,3.1,5.79,11.02,10.32,17.13,12.21,12.81,3.96,30.06,2.03,40.59-6.64.98-.65.91-.41,1.85-1.48,1.34-.57,5.19-5.36,5.17-6.47-.04-2.28-9.78-.64-4.8-4.97.11-.03.25.02.37,0,4.83-.92,11.62-.19,14.76,4.06Z" style="fill:#16110c;"/><path d="M232.79,173.15c2.25-7.63-.34-13.4-7.94-7.02-1.31,1.1-4.52,5.79-6.1,4.65s1.97-6.84,2.97-7.96c.17-.18.55-.57.74-.74,5.71-5.21,16.45-5.09,14.67,5.26-.19,1.09-3.09,7.06-4.34,5.81Z" style="fill:#16110c;"/><path d="M173.75,174.99c-2.39,2.38-3.63,3.37-6.42,4.85-.75.4-1.72.5-2.31.82-.34.19-.85,1.23-.93,1.25-1.01.27-2.63.39-4.08.86-9.29,2.99-19.76,3.66-29.68,1.13-.59-.15-1.24-.2-1.61-.79,8.35,1.8,15.58,2.5,24.06,1,7.83-1.38,14.65-4.34,20.96-9.12Z" style="fill:#f1dab4;"/><path d="M128.36,176.84c.31-.68,1.2-.16,1.7-.04,13.47,3.19,27.6.92,38.89-6.6-10.53,8.67-27.78,10.6-40.59,6.64Z" style="fill:#f1dab4;"/><path d="M222.46,162.08c.63-1.69,4.15-3.26,5.81-3.6,1.26-.26,4.51-.34,5.74-.08.18.04,2.45,2.27,2.67,2.56,1.51,1.98,1.63,5.07,1.17,7.48-.12.62-2.63,4.34-3.14,4.69s-1.04.87-1.7.79c-.37-.04-.17-.72-.22-.76-.09-.08-.83.29-.75-.52.26-2.69,2.47-5.56-.25-8.34-5.34-.89-8.39,4.03-11.63,7.3-.4.26-1.94-.12-2.08-.33-.92-1.46,1.5-7.89,3.64-8.43-1.01,1.12-4.52,6.85-2.97,7.96s4.79-3.55,6.1-4.65c7.6-6.38,10.19-.61,7.94,7.02,1.25,1.25,4.15-4.72,4.34-5.81,1.77-10.36-8.96-10.47-14.67-5.26Z" style="fill:#f1dab4;"/><path d="M171.53,157.28c.41-.18,2.25-1.51,2.39-1.52.74-.02,6.68.84,7.42,1.08,1.27.41,3.32,2.15,4.43,2.97.79.59.59.51.52,1.53-3.14-4.25-9.93-4.98-14.76-4.06Z" style="fill:#f1dab4;"/><path d="M146.44,196.77s.09.5-.07.64c-.69.61-10.63-.22-12.2-.67-.13-.04-2.08-1.27-2.31-1.45-.36-.29-2.95-2.85-3.03-3.05-.75-1.76.93-3.25,2.67-3.24,1.26,0,2.01,1.24,3.5,1.66,4.41,1.25,8.24,1.09,12.69.14,1.03-.22,3.43-1.55,4.42-1.35.14.03,1.67,1.16,1.71,1.28.45,1.46-.45,1.38-.72,1.88-.13.24.11.86-.08,1.11-.13.17-.75.1-1,.28-1.25.96-2.41,1.78-3.84,2.45-.58.27-1.66.23-1.74.28,1.01-.23,4.8-2.36,5.53-3.14.68-.72,1.97-2.98.5-3.46-.99-.33-6.75,1.68-8.78,1.82-2.29.16-5.51.11-7.72-.43-1.99-.49-6.52-4.22-6.51-.14.02,3.71,7.91,5.57,10.9,5.71,1.46.07,4.73-.05,6.09-.36Z" style="fill:#f1dab4;"/><path d="M171.16,157.28c-4.97,4.33,4.77,2.69,4.8,4.97.02,1.11-3.83,5.9-5.17,6.47,1.06-1.22,4.38-5.08,4.44-6.45.04-.86-.1-.42-.56-.57-.75-.25-5.13-.91-5.34-1.12-.1-.1-.11-2.82,0-2.92.07-.07,1.36-.27,1.83-.38Z" style="fill:#f1dab4;"/><path d="M128.36,183.11c-1.2-.27-4.02-.56-4.06-1.85,1.35.57,2.9,1,4.06,1.85Z" style="fill:#f1dab4;"/><path d="M181.13,164.66c-.62,2.73-2.54,5.47-4.43,7.38,1.76-1.98,2.87-5.52,4.43-7.38Z" style="fill:#f1dab4;"/><path d="M186.66,162.08c.77-.26,1.66,2.16,1.75,2.5.21.82.29,1.26-.27,1.93.03-1.56-.7-3.12-1.48-4.43Z" style="fill:#f1dab4;"/><path d="M149.56,235.73c2.93,4.34.93,9.77-3.87,11.79-2.88,1.21-4.89,1.15-7.64-.47-2.07-1.22-3.58-3.98-4.07-6.27-.46-2.18,1.89-6.64,3.87-7.82,4.26-2.55,8.98-1.26,11.7,2.78ZM144.97,244.01c3.22-1.91,3.68-5.22.74-7.75-4.32-3.71-10.26,1.39-7.32,6.4,1.55,2.65,4.15,2.79,6.59,1.35Z" style="fill:#16110c;"/><path d="M144.07,266.74c-3.14,4.15-9.85,3.72-12.91-.25-5.06-6.58,1.56-15.39,9.38-12.7,5.35,1.84,6.82,8.59,3.53,12.95ZM133.16,259.88c-.56,2.01-.73,3.07.74,4.8,3.87,4.58,10.86-.47,8.27-5.14-2.26-4.08-7.75-4.16-9.01.34Z" style="fill:#16110c;"/><path d="M42.75,193.08c-.61-.23-2.67-2.17-2.84-2.21-9.89-1.92-16.14-3.78-26.77-2.13-1.47.23-3.49.64-4.7,1.38-2.07-2.84-2.67-4.56-1.59-8.03s3.55-4.69,6.76-5.79c7.94-2.72,22.59-2.04,29.23,3.48.16.13,2.32,3.05,2.41,3.23.94,2.07,1.28,7.3-.27,9.07-.24.28-1.85,1.14-2.23.99Z" style="fill:#edbd8d;"/><path d="M146.44,196.77c-1.36.31-4.63.43-6.09.36-2.98-.15-10.88-2-10.9-5.71-.02-4.08,4.52-.35,6.51.14,2.21.54,5.43.59,7.72.43,2.03-.14,7.79-2.15,8.78-1.82,1.47.48.17,2.74-.5,3.46-.73.78-4.52,2.91-5.53,3.14Z" style="fill:#16110c;"/><path d="M145.7,236.26c1.98,2.52,1.9,5.83-.74,7.75-2.44,1.45-5.03,1.3-6.59-1.35-2.94-5.01,3.01-10.11,7.32-6.4Z" style="fill:#edbd8d;"/><path d="M144.97,244.01c2.64-1.92,2.72-5.23.74-7.75,2.95,2.53,2.48,5.84-.74,7.75Z" style="fill:#f1dab4;"/><path d="M133.9,264.68l.36-.18c-1.14-1.2-1.14-3.06-1.1-4.62,1.26-4.5,6.75-4.42,9.01-.34,2.59,4.66-4.4,9.71-8.27,5.14Z" style="fill:#edbd8d;"/><path d="M133.9,264.68c-1.46-1.73-1.3-2.79-.74-4.8-.04,1.56-.04,3.41,1.1,4.62l-.36.18Z" style="fill:#f1dab4;"/></svg>
